PathFileType	4	(X/Y/Z)	C:/Users/beibeiliu/ov580/test_trc\sequence.32_training_dense_left.trc
DataRate	CameraRate	NumFrames	NumMarkers	Units	OrigDataRate	OrigDataStartFrame	OrigNumFrames
120	120	20	19	mm	120	101	200
Frame#	Time	ThumbCMC			ThumbMCP			ThumbIP			ThumbTip			IndexMCP			IndexPIP			IndexTip			MiddleMCP			MiddlePIP			MiddleTip			RingMCP			RingPIP			RingTip			PinkyMCP			PinkyPIP			PinkyTip			BackHand1			BackHand2			BackHand3	
		X0	Y0	Z0	X1	Y1	Z1	X2	Y2	Z2	X3	Y3	Z3	X4	Y4	Z4	X5	Y5	Z5	X6	Y6	Z6	X7	Y7	Z7	X8	Y8	Z8	X9	Y9	Z9	X10	Y10	Z10	X11	Y11	Z11	X12	Y12	Z12	X13	Y13	Z13	X14	Y14	Z14	X15	Y15	Z15	X16	Y16	Z16	X17	Y17	Z17	X18	Y18	Z18	
100	0.833333	-153.559	35.5502	46.7822	-134.102	23.245	24.2041	-127.044	17.5341	5.59725	-120.098	10.2125	-13.1384	-151.982	44.3518	-22.1441	-150.714	32.0248	-42.0652	-151.645	12.187	-62.2206	-176.214	53.8785	-32.302	-174.361	46.4636	-53.8817	-173.392	28.357	-77.6188	-196.49	57.093	-20.1817	-197.273	57.329	-42.4708	-200.452	57.3787	-66.6311	-219.273	52.8277	-5.71914	-223.049	56.9538	-22.0387	-232.555	65.2649	-35.0886	-195.716	61.3287	22.3064	-194.306	60.2739	51.0794	-167.562	59.2869	36.3336	
101	0.841667	-153.201	33.2345	39.6362	-141.424	19.2694	23.2085	-133.325	13.0477	2.39842	-124.883	5.04422	-14.9199	-152.724	39.5267	-24.6157	-150.498	26.1258	-42.296	-153.643	6.36176	-63.876	-177.051	53.8344	-29.092	-176.601	51.3639	-57.537	-177.937	47.3997	-80.044	-197.64	56.9267	-22.9895	-202.098	59.7864	-46.9299	-202.538	61.5567	-65.9134	-220.913	50.6433	-8.95819	-224.206	52.8834	-25.022	-236.969	60.6211	-40.4706	-196.698	59.5827	20.8457	-198.734	58.0635	43.7691	-168.612	58.9366	31.0082	
102	0.85	-153.421	32.1631	35.7343	-138.953	16.9263	16.8245	-133.418	8.62569	-0.993064	-126.593	-0.473316	-19.2332	-149.784	39.3247	-31.1086	-147.406	27.8141	-49.2597	-149.054	14.758	-67.5864	-177.8	54.6198	-36.3761	-170.701	54.0303	-58.2786	-173.15	54.8942	-82.979	-200.423	53.0409	-28.6284	-198.994	54.0127	-53.2046	-202.677	54.0797	-73.4861	-218.146	47.0752	-15.4697	-224.604	48.4042	-35.9028	-237.201	52.1779	-50.093	-198.661	57.9617	13.9731	-196.287	57.606	38.4636	-172.653	58.2331	26.0379	
103	0.858333	-156.302	35.547	28.9444	-141.121	19.9999	12.4955	-130.6	9.46533	-5.96328	-124.68	0.580243	-25.0212	-149.94	49.6868	-35.6568	-143.987	41.8643	-57.6764	-139.194	30.7949	-78.7646	-174.199	58.5887	-41.9564	-170.961	58.7734	-67.2683	-169.283	57.9314	-87.9312	-194.49	54.0819	-37.9852	-195.007	49.556	-61.2221	-196.861	39.3708	-83.8587	-216.731	50.1221	-26.1842	-220.888	47.7522	-46.0271	-230.509	47.9174	-64.2169	-196.743	60.539	5.98577	-196.569	61.6858	30.7824	-172.284	61.3769	19.5561	
104	0.866667	-154.867	42.3581	24.2041	-140.703	26.1538	3.01186	-129.545	15.2074	-14.2326	-123.363	6.22596	-35.289	-147.55	61.3854	-40.2638	-142.219	58.0798	-65.6491	-137.785	50.1476	-89.006	-174.437	65.5714	-48.8628	-169.575	63.9902	-74.5696	-168.255	51.5449	-101.631	-194.012	59.808	-48.8303	-191.679	51.5007	-68.294	-189.213	30.8092	-85.9616	-213.063	54.9932	-31.0724	-216.926	52.0648	-53.5277	-224.976	46.6478	-71.9833	-196.947	69.1193	-1.37553	-199.738	70.0753	27.7375	-168.582	66.5183	15.2647	
105	0.875	-152.489	51.0263	15.5733	-138.086	33.559	-0.689723	-130.199	26.1272	-21.6315	-123.382	16.3612	-35.8381	-145.315	73.0533	-41.9815	-143.398	74.8278	-66.367	-136.146	62.6304	-93.0177	-167.868	75.9326	-51.6966	-167.351	72.8138	-79.04	-166.395	50.6624	-100.954	-190.038	69.9373	-46.7069	-185.734	60.0001	-75.5635	-184.01	35.3723	-87.7432	-213.35	63.8125	-37.5841	-215.202	61.5265	-58.8538	-212.513	51.9917	-77.4323	-190.726	75.1583	-3.9443	-194.137	76.091	23.0794	-169.939	74.6915	6.25227	
106	0.883333	-144.451	54.7101	16.2947	-130.384	38.5129	-0.21661	-123.188	32.3821	-23.6591	-120.085	23.3955	-45.9269	-144.559	82.9411	-44.7975	-140.516	84.9344	-69.3161	-138.33	70.755	-91.8982	-168.328	85.2778	-54.6751	-166.516	80.2662	-80.3008	-168.311	54.0621	-99.3918	-186.883	78.6283	-46.0143	-186.838	73.5498	-73.293	-183.589	52.1086	-87.354	-207.01	71.4902	-40.9881	-213.659	68.8028	-60.2792	-211.016	55.6103	-82.1278	-191.245	78.1848	-6.76685	-192.363	77.9803	22.895	-163.19	78.7525	9.08718	
107	0.891667	-144.671	52.1834	15.8939	-128.17	39.7048	-7.20638	-120.813	33.5029	-23.9997	-114.677	25.5935	-46.517	-143.065	83.3017	-39.7473	-140.864	89.9003	-66.5261	-139.77	78.6304	-91.3486	-168.071	89.3519	-50.6756	-165.693	89.8105	-78.8298	-167.958	72.288	-98.7207	-187.99	83.1286	-43.2251	-189.865	86.5412	-68.4575	-182.212	71.0626	-90.0744	-206.27	73.7602	-35.5603	-210.101	75.2166	-55.4493	-209.688	68.472	-77.9963	-190.479	76.9107	-4.60284	-189.704	74.2524	23.4647	-161.626	79.1825	8.68415	
108	0.9	-142.552	50.329	12.9708	-129.605	38.7351	-9.72592	-117.543	32.817	-27.6565	-112.589	25.5325	-46.298	-142.693	87.5827	-38.5433	-138.972	98.6924	-62.1224	-132.465	95.9913	-89.6367	-166.23	96.6992	-44.8224	-167.273	106.371	-71.8186	-167.315	101.532	-98.5139	-190.05	90.2765	-40.9401	-192.969	99.1451	-60.2056	-190.548	98.4125	-86.2736	-208.475	76.5748	-32.6499	-216.871	83.9473	-51.9843	-217.362	87.5174	-69.9608	-186.69	76.8355	-3.12338	-186.984	73.0344	22.1633	-162.031	75.4041	6.96508	
109	0.908333	-141.117	55.943	6.53759	-123.737	41.8178	-11.7648	-117.592	36.0906	-31.3454	-109.199	30.1465	-52.1594	-144.32	96.9842	-41.5341	-138.221	107.377	-57.3089	-131.218	115.91	-77.9877	-168.92	101.11	-40.5239	-169.448	120.655	-61.8729	-174.177	130.166	-82.9899	-190.571	95.3559	-38.8995	-195.07	109.111	-58.6642	-198.681	117.187	-74.0935	-211.871	81.3528	-32.4731	-217.192	89.6349	-49.8647	-228.248	96.0366	-63.8597	-187.985	78.9871	-0.89612	-185.992	75.095	24.2583	-160.32	80.4949	10.0613	
110	0.916667	-137.37	64.9819	9.05754	-121.947	51.1966	-16.0993	-115.832	45.5174	-34.7983	-110.306	40.2106	-53.2064	-143.154	107.191	-41.3223	-138.84	119.802	-60.8329	-131.252	130.101	-73.8461	-169.435	113.617	-43.0961	-173.466	130.526	-59.7009	-175.524	149.408	-78.0412	-189.862	102.936	-40.188	-196.24	115.093	-56.2864	-202.642	127.518	-70.8323	-209.344	85.8621	-35.6688	-218.02	90.2114	-50.896	-227.435	96.519	-64.1852	-188.495	87.2378	-1.97446	-187.268	81.8082	23.2251	-159.208	90.9302	9.46815	
111	0.925	-138.254	72.1431	7.18711	-126.31	57.1674	-11.9362	-116.331	52.0931	-32.1846	-107.184	45.1149	-50.101	-142.108	113.523	-41.4872	-138.006	124.922	-58.416	-130.626	137.549	-77.162	-168.98	120.485	-42.709	-174.647	134.037	-58.5219	-178.757	153.588	-76.2141	-192.669	107.054	-41.2843	-198.826	119.584	-56.7883	-202.889	131.159	-72.2399	-210.523	87.2359	-33.5307	-219.266	91.2776	-49.8962	-231.643	97.4339	-68.507	-186.177	94.9311	-6.77843	-185.325	87.2195	21.7618	-163.225	95.2713	9.64936	
112	0.933333	-137.369	73.7204	10.1667	-125.561	61.1573	-14.7148	-118.464	57.0716	-33.9932	-110.254	50.2075	-54.4893	-144.089	116.095	-38.5573	-136.264	129.364	-59.2312	-131.827	139.28	-81.0956	-176	118.882	-39.0705	-174.347	136.851	-56.654	-179.016	150.402	-78.2336	-194.009	110.289	-39.6825	-199.4	121.794	-56.6609	-201.273	130.33	-76.4204	-211.854	90.3161	-37.106	-216.835	92.902	-51.8409	-224.86	93.3031	-74.5027	-189.929	93.1945	-1.59649	-187.175	88.0344	20.8573	-164.083	98.9679	9.60356	
113	0.941667	-137.546	77.6197	9.55529	-126.191	67.6414	-11.4249	-118.705	64.9225	-34.8007	-117.823	60.8637	-59.2281	-149.4	120.184	-32.9642	-144.423	136.048	-57.5694	-138.416	136.667	-82.4042	-180.792	125.725	-35.5833	-179.746	141.079	-54.2904	-182.886	140.223	-88.433	-194.914	113.884	-33.9584	-198.334	123.942	-54.4562	-199.132	123.479	-82.3419	-211.152	90.5137	-31.2093	-219.391	94.0456	-54.624	-217.538	88.8568	-77.4223	-187.923	96.1133	-0.353443	-191.779	86.2781	25.4386	-164.575	97.9628	15.1274	
114	0.95	-138.461	78.3972	17.2452	-123.795	76.7545	-13.1863	-120.728	77.5538	-36.1073	-126.736	72.738	-55.8233	-151.339	124.571	-26.6184	-148.279	137.58	-52.852	-145.774	129.659	-76.2811	-176.141	124.26	-29.0981	-182.681	136.784	-57.9125	-176.047	126.979	-81.105	-196.19	112.803	-30.127	-196.109	120.401	-52.0247	-188.312	111.199	-76.2416	-204.818	89.4805	-26.3451	-209.802	95.4963	-50.077	-203.505	84.6955	-71.4655	-188.482	89.7205	6.22255	-189.991	83.2565	25.639	-166.654	97.5601	19.72	
115	0.958333	-133.461	78.4556	17.1014	-118.05	78.7976	-5.96279	-115.536	83.1442	-33.7991	-126.543	79.1699	-53.5686	-148.501	121.657	-24.4678	-146.602	133.118	-53.6092	-138.489	118.129	-72.4535	-177.075	119.339	-28.984	-180.177	125.813	-59.3885	-166.393	108.335	-75.0784	-186.805	104.843	-27.3267	-187.67	111.823	-57.749	-174.855	94.9325	-71.1248	-201.911	86.0362	-27.0933	-204.496	86.7701	-50.0157	-186.266	77.7718	-67.5136	-183.796	86.1665	5.72998	-181.295	78.72	29.2168	-156.798	95.0445	19.8727	
116	0.966667	-127.573	74.1802	21.2378	-112.55	82.5672	-7.2823	-110.55	85.0494	-27.9926	-126.022	80.3042	-49.4731	-145.973	115.486	-26.4157	-145.608	125.653	-52.4162	-133.182	103.333	-69.7212	-172.532	111.699	-29.755	-171.903	118.502	-60.9748	-158.614	90.7307	-69.3127	-184.719	97.4571	-29.1277	-181.371	101.978	-58.3198	-168.457	80.8416	-68.183	-194.766	79.9249	-28.1317	-198.892	79.3209	-50.5776	-180.317	67.2625	-66.0441	-176.766	83.8867	7.20182	-179.411	72.7316	29.871	-153.711	90.0956	22.7866	
117	0.975	-123.572	71.9248	21.3269	-106.88	83.64	-4.81109	-108.638	86.7699	-24.8333	-120.189	82.039	-47.047	-144.941	113.024	-30.5454	-138.515	117.971	-57.1097	-128.8	91.9514	-67.2343	-169.448	106.268	-33.0848	-170.7	108.154	-62.7547	-154.291	81.5993	-66.6422	-179.103	93.5538	-33.5961	-177.901	95.2271	-58.3934	-161.373	70.6793	-64.8691	-192.777	70.6502	-27.6878	-192.758	71.3599	-53.6027	-171.356	60.3552	-65.5943	-175.219	78.9	3.31677	-170.853	67.3103	30.88	-154.574	85.4375	18.175	
118	0.983333	-126.745	71.378	18.4463	-109.495	83.4386	-4.63741	-111.264	87.2984	-25.7829	-114.766	83.2413	-50.84	-141.547	110.176	-32.8872	-136.303	111.741	-61.6992	-127.689	85.9835	-68.0693	-165.474	103.098	-38.1385	-163.869	103.679	-67.3582	-147.874	74.2579	-65.5358	-182.459	89.3647	-40.0718	-177.388	85.9956	-64.3005	-157.328	61.455	-64.9611	-191.592	67.3497	-31.341	-192.275	66.3193	-55.68	-168.598	55.71	-66.1588	-177.154	74.9186	3.84595	-174.066	65.8298	28.5403	-150.414	83.1632	18.9985	
119	0.991667	-129.394	72.182	17.0617	-110.149	83.8834	-4.0255	-108.705	89.2069	-27.0278	-114.289	84.3499	-50.5717	-140.349	105.592	-34.9644	-136.162	108.045	-63.9079	-126.541	78.5552	-69.4485	-167.788	100.874	-44.6426	-161.252	93.6248	-74.4972	-144.665	65.9092	-66.2859	-181.692	87.8744	-42.6001	-173.114	82.4172	-68.161	-159.088	58.4524	-67.4955	-193.092	67.3222	-34.9262	-192.62	62.064	-58.631	-169.116	51.8461	-66.3689	-179.531	78.1095	-1.26425	-178.258	68.4653	24.2967	-156.482	84.1274	17.0223	
